<svg xmlns="http://www.w3.org/2000/svg" width="440" height="300" viewBox="0 0 440 300" style="max-width:100%;height:auto;background:#fff" font-family="12px -apple-system,Segoe UI,Roboto,Helvetica,Arial,sans-serif">
<polyline points="46.0,205.0 234.0,205.0" fill="none" stroke="#e53935" stroke-width="2.5" stroke-linecap="round"/>
<polyline points="234.0,83.0 422.0,83.0" fill="none" stroke="#e53935" stroke-width="2.5" stroke-linecap="round"/>
<text x="83.6" y="52.5" fill="#e53935" font-size="13" font-weight="600">y = sgn x</text>
<circle cx="234.0" cy="144.0" r="3.4" fill="#e53935"/>
<line x1="46.0" y1="22" x2="46.0" y2="266" stroke="#ececec" stroke-width="1"/>
<line x1="83.6" y1="22" x2="83.6" y2="266" stroke="#ececec" stroke-width="1"/>
<line x1="121.2" y1="22" x2="121.2" y2="266" stroke="#ececec" stroke-width="1"/>
<line x1="158.8" y1="22" x2="158.8" y2="266" stroke="#ececec" stroke-width="1"/>
<line x1="196.4" y1="22" x2="196.4" y2="266" stroke="#ececec" stroke-width="1"/>
<line x1="271.6" y1="22" x2="271.6" y2="266" stroke="#ececec" stroke-width="1"/>
<line x1="309.2" y1="22" x2="309.2" y2="266" stroke="#ececec" stroke-width="1"/>
<line x1="346.8" y1="22" x2="346.8" y2="266" stroke="#ececec" stroke-width="1"/>
<line x1="384.4" y1="22" x2="384.4" y2="266" stroke="#ececec" stroke-width="1"/>
<line x1="422.0" y1="22" x2="422.0" y2="266" stroke="#ececec" stroke-width="1"/>
<line x1="46" y1="266.0" x2="422" y2="266.0" stroke="#ececec" stroke-width="1"/>
<line x1="46" y1="205.0" x2="422" y2="205.0" stroke="#ececec" stroke-width="1"/>
<line x1="46" y1="83.0" x2="422" y2="83.0" stroke="#ececec" stroke-width="1"/>
<line x1="46" y1="22.0" x2="422" y2="22.0" stroke="#ececec" stroke-width="1"/>
<line x1="46" y1="144.0" x2="422" y2="144.0" stroke="#444" stroke-width="1.5"/>
<line x1="234.0" y1="22" x2="234.0" y2="266" stroke="#444" stroke-width="1.5"/>
<polygon points="422.0,144.0 414.6,147.1 414.6,140.9" fill="#444"/>
<polygon points="234.0,22.0 237.1,29.4 230.9,29.4" fill="#444"/>
<text x="418" y="138.0" fill="#444" font-size="12" text-anchor="end">x</text>
<text x="240.0" y="34" fill="#444" font-size="12" text-anchor="start">y</text>
<text x="238.0" y="157.0" fill="#9aa" font-size="11" text-anchor="start">O</text>
<text x="46" y="14" fill="#333" font-size="13" font-weight="700">符号函数 y = sgn x</text>
</svg>